<?xml version="1.0" encoding="UTF-8" standalone="no"?>
<!-- Generator: Adobe Illustrator 16.0.0, SVG Export Plug-In . SVG Version: 6.00 Build 0)  -->

<svg
   version="1.1"
   x="0px"
   y="0px"
   width="2661.2576"
   height="384.8959"
   viewBox="0 0 2661.8591 384.89591"
   enable-background="new 0 0 1326.988 986.422"
   xml:space="preserve"
   id="svg151"
   sodipodi:docname="EPICS_green_logo.svg"
   inkscape:version="1.1.2 (0a00cf5339, 2022-02-04)"
   xmlns:inkscape="http://www.inkscape.org/namespaces/inkscape"
   xmlns:sodipodi="http://sodipodi.sourceforge.net/DTD/sodipodi-0.dtd"
   xmlns="http://www.w3.org/2000/svg"
   xmlns:svg="http://www.w3.org/2000/svg"><defs
   id="defs155"><rect
     x="-439.98199"
     y="1148.9272"
     width="3609.2559"
     height="1683.9192"
     id="rect314671" /><rect
     x="1083.8448"
     y="315.5517"
     width="2672.4771"
     height="546.76154"
     id="rect11019" /></defs><sodipodi:namedview
   id="namedview153"
   pagecolor="#505050"
   bordercolor="#ffffff"
   borderopacity="1"
   inkscape:pageshadow="0"
   inkscape:pageopacity="0"
   inkscape:pagecheckerboard="1"
   showgrid="false"
   showguides="true"
   inkscape:guide-bbox="true"
   inkscape:snap-bbox="true"
   viewbox-width="1327.088"
   fit-margin-top="2"
   fit-margin-left="2"
   fit-margin-right="2"
   fit-margin-bottom="2"
   lock-margins="true"
   inkscape:zoom="0.25"
   inkscape:cx="770"
   inkscape:cy="560"
   inkscape:window-width="1920"
   inkscape:window-height="939"
   inkscape:window-x="0"
   inkscape:window-y="32"
   inkscape:window-maximized="1"
   inkscape:current-layer="svg151"><sodipodi:guide
     position="1048.4865,191.04603"
     orientation="0,-1"
     id="guide231125" /></sodipodi:namedview>
<g
   id="black_blue_backround"
   display="none"
   transform="translate(-56.29755,-285.75218)">
	<rect
   display="inline"
   fill="#18334b"
   width="1326.988"
   height="986.422"
   id="rect129"
   x="0"
   y="0" />
</g>

<g
   id="logo"
   transform="translate(-300.72055,-300.76305)">
	<path
   id="S"
   fill="#c7de37"
   d="m 880.5,474.714 24.796,-29.844 c 13.879,11.817 31.589,20.094 47.529,20.094 18.003,0 26.866,-7.098 26.866,-18.622 0,-12.118 -10.922,-15.954 -27.753,-23.056 l -25.089,-10.628 c -19.785,-7.985 -38.679,-24.537 -38.679,-52.604 0,-31.927 28.343,-57.334 68.493,-57.334 22.141,0 45.46,8.863 61.998,25.407 l -22.143,27.485 c -12.691,-9.751 -24.504,-15.359 -39.855,-15.359 -15.057,0 -24.511,6.496 -24.511,17.438 0,11.817 12.704,15.954 29.23,22.751 l 24.795,10.047 c 23.333,9.461 38.089,25.122 38.089,52.31 0,31.915 -26.573,59.693 -72.621,59.693 -25.088,10e-4 -51.657,-9.461 -71.145,-27.778" />
	<path
   id="C"
   fill="#c7de37"
   d="m 720.193,403.782 c 0,-63.822 42.208,-101.057 90.926,-101.057 24.796,0 44.865,11.821 57.849,25.118 l -23.018,27.774 c -9.742,-8.867 -20.073,-15.359 -33.949,-15.359 -26.272,0 -47.228,23.336 -47.228,62.057 0,39.595 18.295,62.65 46.63,62.65 15.653,0 28.042,-7.985 37.496,-18.028 l 23.03,27.185 c -15.945,18.617 -37.211,28.372 -62.291,28.372 -48.704,-0.001 -89.445,-33.991 -89.445,-98.712" />
	<path
   id="I"
   style="fill:#c7de37"
   d="m 640.46997,306.263 h 43.399 V 498.95 h -43.399 z" />
	<path
   id="P"
   fill="#c7de37"
   d="m 529.165,399.056 c 23.905,0 35.422,-10.641 35.422,-30.731 0,-20.095 -12.992,-27.486 -36.61,-27.486 h -20.076 v 58.217 z m -64.647,-92.793 h 66.115 c 42.215,0 76.456,15.373 76.456,62.062 0,45.212 -34.536,65.31 -75.275,65.31 h -23.913 v 65.311 h -43.383 z" />
	<path
   id="E"
   style="fill:#c7de37"
   d="m 411.651,381.617 h -65.534 v -38.708 h 77.049 V 306.263 H 302.721 V 498.95 h 123.4 v -36.646 h -80.004 v -44.338 h 65.534 z" />
	<path
   id="signe"
   style="fill:#c7de37"
   d="M 1024.268,531.786 H 892.313 V 645.119 H 853.5 V 531.786 H 721.535 V 645.119 H 682.819 V 531.786 H 302.723 V 683.702 H 434.676 V 570.368 h 38.819 V 683.702 H 605.444 V 570.368 h 38.802 v 113.334 h 380.022 z" />
</g>
<g
   id="safety_zone"
   display="none"
   transform="translate(-56.29755,-285.75218)">
	<rect
   y="570.36798"
   display="inline"
   fill="#ea2227"
   width="302.72101"
   height="113.334"
   id="rect142"
   x="0" />
	<rect
   x="910.93402"
   display="inline"
   fill="#ea2227"
   width="113.334"
   height="302.72101"
   id="rect144"
   y="0" />
	<rect
   x="910.93402"
   y="683.70203"
   display="inline"
   fill="#ea2227"
   width="113.334"
   height="302.72101"
   id="rect146" />
	<rect
   x="1024.2679"
   y="570.36798"
   display="inline"
   fill="#ea2227"
   width="302.72101"
   height="113.334"
   id="rect148" />
</g>
<g
   aria-label="Documentation"
   transform="translate(-260.93138,-261.84532)"
   id="text11017"
   style="font-size:266.727px;line-height:1.25;font-family:'Fira Sans';-inkscape-font-specification:'Fira Sans';white-space:pre;shape-inside:url(#rect11019);fill:#c7de37"><path
     d="m 1148.9271,372.94154 h -38.4087 v 183.77489 h 44.01 c 39.7423,0 86.4195,-17.8707 86.4195,-92.82099 0,-76.28392 -45.0769,-90.9539 -92.0208,-90.9539 z m 5.6013,20.27125 c 29.3399,0 59.4801,8.53526 59.4801,70.68265 0,60.54703 -28.8065,72.81647 -57.6131,72.81647 h -20.5379 V 393.21279 Z"
     id="path125" /><path
     d="m 1333.7687,412.95059 c -40.0091,0 -62.9476,30.14015 -62.9476,73.61665 0,44.5434 22.6718,73.34992 62.6808,73.34992 39.7423,0 62.6809,-30.14015 62.6809,-73.61665 0,-44.54341 -22.4051,-73.34992 -62.4141,-73.34992 z m 0,19.73779 c 23.2052,0 36.0081,17.07053 36.0081,53.61213 0,36.80832 -12.8029,53.87885 -36.2749,53.87885 -23.4719,0 -36.2748,-17.07053 -36.2748,-53.61212 0,-36.80833 13.0696,-53.87886 36.5416,-53.87886 z"
     id="path127" /><path
     d="m 1487.9368,412.95059 c -38.142,0 -61.3473,29.87342 -61.3473,74.68355 0,45.34359 23.472,72.28302 61.3473,72.28302 16.2703,0 30.4068,-5.33454 42.943,-15.47017 l -11.2025,-16.00362 c -10.6691,6.93491 -18.9377,10.66908 -30.6736,10.66908 -22.1384,0 -36.0082,-15.20344 -36.0082,-52.01176 0,-36.5416 13.8698,-53.87885 36.0082,-53.87885 11.7359,0 20.5379,3.46745 30.1401,10.40235 l 11.736,-15.47016 c -13.0696,-10.93581 -26.406,-15.20344 -42.943,-15.20344 z"
     id="path129" /><path
     d="m 1666.11,416.15131 h -24.5389 v 100.28935 c -8.5353,14.13653 -20.0045,24.27216 -35.208,24.27216 -15.2034,0 -21.6049,-7.20163 -21.6049,-26.40598 v -98.15553 h -24.5388 v 100.8228 c 0,27.47288 14.6699,42.94305 39.2088,42.94305 20.0045,0 33.0742,-8.00181 43.7433,-25.07234 l 1.867,21.87161 h 21.0715 z"
     id="path131" /><path
     d="m 1857.8864,412.95059 c -18.9376,0 -31.7405,10.13562 -41.8762,25.33906 -5.3345,-16.00362 -18.1374,-25.33906 -35.4747,-25.33906 -18.4041,0 -31.207,9.60217 -40.5425,23.7387 l -2.1338,-20.53798 h -21.0714 v 140.56512 h 24.5389 v -99.75589 c 9.3354,-14.93671 17.8707,-24.80561 33.0741,-24.80561 10.6691,0 19.7378,6.13472 19.7378,27.20615 v 97.35535 h 24.5389 v -99.75589 c 9.6022,-14.93671 17.8707,-24.80561 33.0742,-24.80561 10.669,0 19.7377,6.13472 19.7377,27.20615 v 97.35535 h 24.5389 v -100.8228 c 0,-26.40597 -15.2034,-42.94304 -38.1419,-42.94304 z"
     id="path133" /><path
     d="m 2051.5297,482.2996 c 0,-42.94304 -20.0045,-69.34901 -57.8797,-69.34901 -36.2749,0 -58.4132,31.20705 -58.4132,74.95028 0,44.54341 22.9385,72.01629 62.1474,72.01629 19.471,0 35.2079,-6.66818 49.0777,-17.60398 l -10.6691,-14.66999 c -12.2694,8.53527 -22.6718,12.26944 -36.5416,12.26944 -20.2712,0 -35.4746,-12.53616 -37.8752,-45.07686 h 89.6203 c 0.2667,-3.20072 0.5334,-7.73508 0.5334,-12.53617 z m -24.2721,-5.60126 h -65.8816 c 1.8671,-31.20706 14.1365,-44.27668 32.8074,-44.27668 22.1384,0 33.0742,15.20344 33.0742,42.67632 z"
     id="path135" /><path
     d="m 2156.8864,412.95059 c -18.4042,0 -33.3409,9.60217 -42.943,24.00543 l -2.1339,-20.80471 h -21.0714 v 140.56512 h 24.5389 v -99.75589 c 9.3354,-14.93671 20.0045,-24.80561 35.7414,-24.80561 13.6031,0 22.1384,6.13472 22.1384,27.20615 v 97.35535 h 24.5388 v -100.8228 c 0,-26.6727 -14.9367,-42.94304 -40.8092,-42.94304 z"
     id="path137" /><path
     d="m 2308.6537,534.04464 c -6.9349,3.73418 -12.5362,5.60127 -18.6709,5.60127 -12.2694,0 -16.8038,-6.66818 -16.8038,-20.80471 v -83.75227 h 30.6736 l 2.6673,-18.93762 H 2273.179 V 381.4768 l -24.5389,2.934 v 31.74051 h -24.5389 v 18.93762 h 24.5389 v 84.81918 c 0,26.13924 14.1365,40.00905 37.8752,40.00905 12.0028,0 22.1384,-3.20073 31.4738,-9.60217 z"
     id="path139" /><path
     d="m 2436.1482,523.90901 v -64.2812 c 0,-29.33997 -15.4701,-46.67722 -49.3445,-46.67722 -15.7368,0 -31.207,3.20072 -48.5443,9.60217 l 6.1348,17.87071 c 14.4032,-4.80109 27.4728,-7.46836 37.8752,-7.46836 19.4711,0 29.34,7.46836 29.34,27.73961 v 10.40235 h -21.6049 c -39.2089,0 -61.8807,16.27035 -61.8807,46.4105 0,25.07233 16.8038,42.40959 44.8101,42.40959 17.0706,0 32.0073,-6.40145 41.8762,-21.07143 4.2676,13.8698 13.3363,19.47107 27.4729,21.07143 l 5.6012,-17.07053 c -7.2016,-2.66727 -11.736,-6.66817 -11.736,-18.93762 z m -57.613,17.60399 c -16.0036,0 -24.2721,-8.80199 -24.2721,-25.33907 0,-19.20434 13.0696,-28.80651 38.9421,-28.80651 h 18.4042 v 32.27396 c -8.0019,14.66999 -18.6709,21.87162 -33.0742,21.87162 z"
     id="path141" /><path
     d="m 2548.1732,534.04464 c -6.9349,3.73418 -12.5362,5.60127 -18.6709,5.60127 -12.2694,0 -16.8038,-6.66818 -16.8038,-20.80471 v -83.75227 h 30.6736 l 2.6673,-18.93762 h -33.3409 V 381.4768 l -24.5389,2.934 v 31.74051 h -24.5388 v 18.93762 h 24.5388 v 84.81918 c 0,26.13924 14.1366,40.00905 37.8753,40.00905 12.0027,0 22.1383,-3.20073 31.4738,-9.60217 z"
     id="path143" /><path
     d="m 2594.85,348.66938 c -10.1357,0 -17.0706,7.20163 -17.0706,16.8038 0,9.33545 6.9349,16.53708 17.0706,16.53708 10.4023,0 17.3372,-7.20163 17.3372,-16.53708 0,-9.60217 -6.9349,-16.8038 -17.3372,-16.8038 z m 12.5361,67.48193 h -24.5389 v 140.56512 h 24.5389 z"
     id="path145" /><path
     d="m 2710.8761,412.95059 c -40.009,0 -62.9476,30.14015 -62.9476,73.61665 0,44.5434 22.6718,73.34992 62.6809,73.34992 39.7423,0 62.6808,-30.14015 62.6808,-73.61665 0,-44.54341 -22.405,-73.34992 -62.4141,-73.34992 z m 0,19.73779 c 23.2053,0 36.0081,17.07053 36.0081,53.61213 0,36.80832 -12.8028,53.87885 -36.2748,53.87885 -23.472,0 -36.2749,-17.07053 -36.2749,-53.61212 0,-36.80833 13.0696,-53.87886 36.5416,-53.87886 z"
     id="path147" /><path
     d="m 2879.9809,412.95059 c -18.4042,0 -33.3409,9.60217 -42.9431,24.00543 l -2.1338,-20.80471 h -21.0714 v 140.56512 h 24.5389 v -99.75589 c 9.3354,-14.93671 20.0045,-24.80561 35.7414,-24.80561 13.6031,0 22.1383,6.13472 22.1383,27.20615 v 97.35535 h 24.5389 v -100.8228 c 0,-26.6727 -14.9367,-42.94304 -40.8092,-42.94304 z"
     id="path149" /></g><g
   transform="matrix(1.000226,0,0,1.000226,2.0716707e-6,-0.04395273)"
   id="text314669"
   style="font-size:40px;line-height:1.25;white-space:pre;shape-inside:url(#rect314671)" /></svg>
