<?xml version="1.0" encoding="UTF-8" standalone="no"?>
<!-- Generator: Adobe Illustrator 16.0.0, SVG Export Plug-In . SVG Version: 6.00 Build 0)  -->

<svg
   xmlns:dc="http://purl.org/dc/elements/1.1/"
   xmlns:cc="http://creativecommons.org/ns#"
   xmlns:rdf="http://www.w3.org/1999/02/22-rdf-syntax-ns#"
   xmlns:svg="http://www.w3.org/2000/svg"
   xmlns="http://www.w3.org/2000/svg"
   xmlns:sodipodi="http://sodipodi.sourceforge.net/DTD/sodipodi-0.dtd"
   xmlns:inkscape="http://www.inkscape.org/namespaces/inkscape"
   version="1.1"
   x="0px"
   y="0px"
   width="377.13766"
   height="47.520645"
   viewBox="0 0 377.13766 47.520646"
   enable-background="new 0 0 1326.988 986.422"
   xml:space="preserve"
   id="svg4204"
   inkscape:version="0.91+devel+osxmenu r12922"
   sodipodi:docname="EPICS_white_logo_v01.svg"
   inkscape:export-filename="/Users/keijokorhonen/src/epics-docs/images/EPICS_white_logo_v01.png"
   inkscape:export-xdpi="96"
   inkscape:export-ydpi="96"><metadata
     id="metadata4227"><rdf:RDF><cc:Work
         rdf:about=""><dc:format>image/svg+xml</dc:format><dc:type
           rdf:resource="http://purl.org/dc/dcmitype/StillImage" /><dc:title></dc:title></cc:Work></rdf:RDF></metadata><defs
     id="defs4225" /><sodipodi:namedview
     pagecolor="#ffffff"
     bordercolor="#666666"
     borderopacity="1"
     objecttolerance="10"
     gridtolerance="10"
     guidetolerance="10"
     inkscape:pageopacity="0"
     inkscape:pageshadow="2"
     inkscape:window-width="1440"
     inkscape:window-height="734"
     id="namedview4223"
     showgrid="false"
     fit-margin-top="0"
     fit-margin-left="0"
     fit-margin-right="0"
     fit-margin-bottom="0"
     inkscape:zoom="1.4142136"
     inkscape:cx="281.74288"
     inkscape:cy="-38.421802"
     inkscape:window-x="0"
     inkscape:window-y="23"
     inkscape:window-maximized="0"
     inkscape:current-layer="layer1"
     inkscape:snap-global="false"><inkscape:grid
       type="xygrid"
       id="grid4871"
       originx="4.228e-06"
       originy="2.7223985e-06" /></sodipodi:namedview><g
     id="white_backround"
     display="none"
     style="display:none"
     transform="translate(-618.4945,-469.45068)" /><g
     id="logo"
     transform="translate(-618.4945,-469.45068)" /><g
     id="safety_zone"
     display="none"
     style="display:none"
     transform="translate(-618.4945,-469.45068)"><rect
       y="570.36798"
       display="inline"
       width="302.72101"
       height="113.334"
       id="rect4215"
       x="0"
       style="display:inline;fill:#ec1e24" /><rect
       x="910.93402"
       display="inline"
       width="113.334"
       height="302.72101"
       id="rect4217"
       y="0"
       style="display:inline;fill:#ec1e24" /><rect
       x="910.93402"
       y="683.70203"
       display="inline"
       width="113.334"
       height="302.72101"
       id="rect4219"
       style="display:inline;fill:#ec1e24" /><rect
       x="1024.2679"
       y="570.36798"
       display="inline"
       width="302.72101"
       height="113.334"
       id="rect4221"
       style="display:inline;fill:#ec1e24" /></g><g
     inkscape:groupmode="layer"
     id="layer1"
     inkscape:label="Layer 1"
     transform="translate(-315.7735,-166.73068)"><g
       transform="matrix(0.124732,0,0,0.124732,278.0145,128.97181)"
       style="fill:#ffffff"
       id="g4230"><path
         style="fill:#ffffff"
         inkscape:connector-curvature="0"
         d="m 880.5,474.714 24.796,-29.844 c 13.879,11.817 31.589,20.094 47.529,20.094 18.003,0 26.866,-7.098 26.866,-18.622 0,-12.118 -10.922,-15.954 -27.753,-23.056 l -25.089,-10.628 c -19.785,-7.985 -38.679,-24.537 -38.679,-52.604 0,-31.927 28.343,-57.334 68.493,-57.334 22.141,0 45.46,8.863 61.998,25.407 l -22.143,27.485 c -12.691,-9.751 -24.504,-15.359 -39.855,-15.359 -15.057,0 -24.511,6.496 -24.511,17.438 0,11.817 12.704,15.954 29.23,22.751 l 24.795,10.047 c 23.333,9.461 38.089,25.122 38.089,52.31 0,31.915 -26.573,59.693 -72.621,59.693 -25.088,10e-4 -51.657,-9.461 -71.145,-27.778"
         id="S" /><path
         style="fill:#ffffff"
         inkscape:connector-curvature="0"
         d="m 720.193,403.782 c 0,-63.822 42.208,-101.057 90.926,-101.057 24.796,0 44.865,11.821 57.849,25.118 l -23.018,27.774 c -9.742,-8.867 -20.073,-15.359 -33.949,-15.359 -26.272,0 -47.228,23.336 -47.228,62.057 0,39.595 18.295,62.65 46.63,62.65 15.653,0 28.042,-7.985 37.496,-18.028 l 23.03,27.185 c -15.945,18.617 -37.211,28.372 -62.291,28.372 -48.704,-0.001 -89.445,-33.991 -89.445,-98.712"
         id="C" /><rect
         style="fill:#ffffff"
         height="192.687"
         width="43.398998"
         y="306.263"
         x="640.46997"
         id="I" /><path
         style="fill:#ffffff"
         inkscape:connector-curvature="0"
         d="m 529.165,399.056 c 23.905,0 35.422,-10.641 35.422,-30.731 0,-20.095 -12.992,-27.486 -36.61,-27.486 l -20.076,0 0,58.217 21.264,0 z m -64.647,-92.793 66.115,0 c 42.215,0 76.456,15.373 76.456,62.062 0,45.212 -34.536,65.31 -75.275,65.31 l -23.913,0 0,65.311 -43.383,0 0,-192.683 z"
         id="P" /><polygon
         style="fill:#ffffff"
         points="423.166,342.909 423.166,306.263 302.721,306.263 302.721,498.95 426.121,498.95 426.121,462.304 346.117,462.304 346.117,417.966 411.651,417.966 411.651,381.617 346.117,381.617 346.117,342.909 "
         id="E" /><polygon
         style="fill:#ffffff"
         points="434.676,683.702 434.676,570.368 473.495,570.368 473.495,683.702 605.444,683.702 605.444,570.368 644.246,570.368 644.246,683.702 1024.268,683.702 1024.268,531.786 892.313,531.786 892.313,645.119 853.5,645.119 853.5,531.786 721.535,531.786 721.535,645.119 682.819,645.119 682.819,531.786 302.723,531.786 302.723,683.702 "
         id="signe" /></g></g><g
     inkscape:groupmode="layer"
     id="layer4"
     inkscape:label="Layer 3"><text
       xml:space="preserve"
       style="font-style:normal;font-weight:normal;font-size:40px;line-height:125%;font-family:sans-serif;letter-spacing:0px;word-spacing:0px;fill:#000000;fill-opacity:1;stroke:none;stroke-width:1px;stroke-linecap:butt;stroke-linejoin:miter;stroke-opacity:1"
       x="102.625"
       y="36.770645"
       id="text4859"
       sodipodi:linespacing="125%"><tspan
         sodipodi:role="line"
         id="tspan4861"
         x="102.625"
         y="36.770645"
         style="font-style:normal;font-variant:normal;font-weight:normal;font-stretch:normal;font-size:42.66666794px;font-family:'Source Sans Pro';-inkscape-font-specification:'Source Sans Pro';fill:#ffffff">Documentation</tspan></text>
</g></svg>