<?xml version="1.0" encoding="UTF-8" standalone="no"?>
<!DOCTYPE svg PUBLIC "-//W3C//DTD SVG 1.1//EN"
        "http://www.w3.org/Graphics/SVG/1.1/DTD/svg11.dtd">
<!-- Generated by graphviz version 2.40.1 (20161225.0304)
 -->
<!-- Title: caproto Pages: 1 -->
<svg width="1658pt" height="1061pt"
     viewBox="0.00 0.00 1657.85 1060.80" xmlns="http://www.w3.org/2000/svg" xmlns:xlink="http://www.w3.org/1999/xlink">
    <g id="graph0" class="graph" transform="scale(1 1) rotate(0) translate(4 1056.8)">
        <title>caproto</title>
        <polygon fill="#ffffff" stroke="transparent" points="-4,4 -4,-1056.8 1653.8511,-1056.8 1653.8511,4 -4,4"/>
        <g id="clust1" class="cluster">
            <title>cluster_legend</title>
            <polygon fill="none" stroke="#000000" points="109.3013,-960 109.3013,-1044.8 549.3013,-1044.8 549.3013,-960 109.3013,-960"/>
            <text text-anchor="middle" x="329.3013" y="-1028.2" font-family="Times,serif" font-size="14.00" fill="#000000">Legend</text>
        </g>
        <!-- srv_legend -->
        <g id="node1" class="node">
            <title>srv_legend</title>
            <polygon fill="none" stroke="#000000" points="541.1863,-1008 407.4164,-1008 407.4164,-972 541.1863,-972 541.1863,-1008"/>
            <text text-anchor="middle" x="474.3013" y="-985.8" font-family="Times,serif" font-size="14.00" fill="#000000">Message from server</text>
        </g>
        <!-- cli_legend -->
        <g id="node2" class="node">
            <title>cli_legend</title>
            <ellipse fill="none" stroke="#000000" cx="299.3013" cy="-990" rx="89.7441" ry="18"/>
            <text text-anchor="middle" x="299.3013" y="-985.8" font-family="Times,serif" font-size="14.00" fill="#000000">Message from client</text>
        </g>
        <!-- stt_legend -->
        <g id="node3" class="node">
            <title>stt_legend</title>
            <polygon fill="none" stroke="#000000" points="187.0103,-982.5442 187.0103,-997.4558 167.8498,-1008 140.7529,-1008 121.5924,-997.4558 121.5924,-982.5442 140.7529,-972 167.8498,-972 187.0103,-982.5442"/>
            <polygon fill="none" stroke="#000000" points="190.9936,-980.175 190.9936,-999.825 168.8697,-1012 139.733,-1012 117.6091,-999.825 117.6091,-980.175 139.733,-968 168.8697,-968 190.9936,-980.175"/>
            <text text-anchor="middle" x="154.3013" y="-985.8" font-family="Times,serif" font-size="14.00" fill="#000000">State</text>
        </g>
        <!-- srv_version -->
        <g id="node4" class="node">
            <title>srv_version</title>
            <polygon fill="none" stroke="#000000" points="502.2817,-932 346.3209,-932 346.3209,-896 502.2817,-896 502.2817,-932"/>
            <text text-anchor="middle" x="424.3013" y="-909.8" font-family="Times,serif" font-size="14.00" fill="#000000">CA_PROTO_VERSION</text>
        </g>
        <!-- circuit_ready -->
        <g id="node31" class="node">
            <title>circuit_ready</title>
            <polygon fill="none" stroke="#000000" points="581.3996,-686.5442 581.3996,-701.4558 540.337,-712 482.2657,-712 441.2031,-701.4558 441.2031,-686.5442 482.2657,-676 540.337,-676 581.3996,-686.5442"/>
            <polygon fill="none" stroke="#000000" points="585.3885,-683.4394 585.3885,-704.5606 540.8396,-716 481.7631,-716 437.2142,-704.5606 437.2142,-683.4394 481.7631,-672 540.8396,-672 585.3885,-683.4394"/>
            <text text-anchor="middle" x="511.3013" y="-689.8" font-family="Times,serif" font-size="14.00" fill="#000000">Circuit Ready</text>
        </g>
        <!-- srv_version&#45;&gt;circuit_ready -->
        <g id="edge4" class="edge">
            <title>srv_version&#45;&gt;circuit_ready</title>
            <path fill="none" stroke="#000000" d="M425.0076,-895.9588C426.8735,-864.91 433.6586,-800.0796 458.3013,-752 463.5411,-741.7768 471.0694,-732.0029 478.8133,-723.4891"/>
            <polygon fill="#000000" stroke="#000000" points="481.5466,-725.6949 485.9263,-716.0477 476.4864,-720.8581 481.5466,-725.6949"/>
        </g>
        <!-- cli_version -->
        <g id="node5" class="node">
            <title>cli_version</title>
            <ellipse fill="none" stroke="#000000" cx="628.3013" cy="-914" rx="107.6849" ry="18"/>
            <text text-anchor="middle" x="628.3013" y="-909.8" font-family="Times,serif" font-size="14.00" fill="#000000">CA_PROTO_VERSION</text>
        </g>
        <!-- cli_user -->
        <g id="node6" class="node">
            <title>cli_user</title>
            <ellipse fill="none" stroke="#000000" cx="617.3013" cy="-842" rx="133.1701" ry="18"/>
            <text text-anchor="middle" x="617.3013" y="-837.8" font-family="Times,serif" font-size="14.00" fill="#000000">CA_PROTO_CLIENT_NAME</text>
        </g>
        <!-- cli_version&#45;&gt;cli_user -->
        <g id="edge6" class="edge">
            <title>cli_version&#45;&gt;cli_user</title>
            <path fill="none" stroke="#000000" d="M625.5256,-895.8314C624.3491,-888.131 622.9502,-878.9743 621.6428,-870.4166"/>
            <polygon fill="#000000" stroke="#000000" points="625.0847,-869.7699 620.1145,-860.4133 618.165,-870.8272 625.0847,-869.7699"/>
        </g>
        <!-- cli_host -->
        <g id="node7" class="node">
            <title>cli_host</title>
            <ellipse fill="none" stroke="#000000" cx="591.3013" cy="-770" rx="124.4418" ry="18"/>
            <text text-anchor="middle" x="591.3013" y="-765.8" font-family="Times,serif" font-size="14.00" fill="#000000">CA_PROTO_HOST_NAME</text>
        </g>
        <!-- cli_user&#45;&gt;cli_host -->
        <g id="edge7" class="edge">
            <title>cli_user&#45;&gt;cli_host</title>
            <path fill="none" stroke="#000000" d="M610.7404,-823.8314C607.8986,-815.9617 604.5076,-806.5712 601.3595,-797.8533"/>
            <polygon fill="#000000" stroke="#000000" points="604.639,-796.63 597.9506,-788.4133 598.0551,-799.0076 604.639,-796.63"/>
        </g>
        <!-- cli_host&#45;&gt;circuit_ready -->
        <g id="edge8" class="edge">
            <title>cli_host&#45;&gt;circuit_ready</title>
            <path fill="none" stroke="#000000" d="M572.3425,-751.9891C563.2703,-743.3706 552.1796,-732.8343 541.9525,-723.1186"/>
            <polygon fill="#000000" stroke="#000000" points="544.3601,-720.5782 534.6995,-716.2282 539.5388,-725.6532 544.3601,-720.5782"/>
        </g>
        <!-- cli_events_off -->
        <g id="node8" class="node">
            <title>cli_events_off</title>
            <ellipse fill="none" stroke="#000000" cx="125.3013" cy="-618" rx="125.103" ry="18"/>
            <text text-anchor="middle" x="125.3013" y="-613.8" font-family="Times,serif" font-size="14.00" fill="#000000">CA_PROTO_EVENTS_OFF</text>
        </g>
        <!-- cli_events_on -->
        <g id="node9" class="node">
            <title>cli_events_on</title>
            <ellipse fill="none" stroke="#000000" cx="390.3013" cy="-618" rx="121.5722" ry="18"/>
            <text text-anchor="middle" x="390.3013" y="-613.8" font-family="Times,serif" font-size="14.00" fill="#000000">CA_PROTO_EVENTS_ON</text>
        </g>
        <!-- cli_search -->
        <g id="node10" class="node">
            <title>cli_search</title>
            <ellipse fill="none" stroke="#000000" cx="633.3013" cy="-618" rx="103.6932" ry="18"/>
            <text text-anchor="middle" x="633.3013" y="-613.8" font-family="Times,serif" font-size="14.00" fill="#000000">CA_PROTO_SEARCH</text>
        </g>
        <!-- srv_search -->
        <g id="node11" class="node">
            <title>srv_search</title>
            <polygon fill="none" stroke="#000000" points="536.3518,-564 386.2509,-564 386.2509,-528 536.3518,-528 536.3518,-564"/>
            <text text-anchor="middle" x="461.3013" y="-541.8" font-family="Times,serif" font-size="14.00" fill="#000000">CA_PROTO_SEARCH</text>
        </g>
        <!-- cli_search&#45;&gt;srv_search -->
        <g id="edge12" class="edge">
            <title>cli_search&#45;&gt;srv_search</title>
            <path fill="none" stroke="#000000" d="M593.4088,-601.3008C569.8255,-591.4287 539.6746,-578.8074 514.1332,-568.1156"/>
            <polygon fill="#000000" stroke="#000000" points="515.1691,-564.755 504.5932,-564.1222 512.4661,-571.2121 515.1691,-564.755"/>
        </g>
        <!-- srv_not_found -->
        <g id="node12" class="node">
            <title>srv_not_found</title>
            <polygon fill="none" stroke="#000000" points="734.1046,-564 554.4981,-564 554.4981,-528 734.1046,-528 734.1046,-564"/>
            <text text-anchor="middle" x="644.3013" y="-541.8" font-family="Times,serif" font-size="14.00" fill="#000000">CA_PROTO_NOT_FOUND</text>
        </g>
        <!-- cli_search&#45;&gt;srv_not_found -->
        <g id="edge13" class="edge">
            <title>cli_search&#45;&gt;srv_not_found</title>
            <path fill="none" stroke="#000000" d="M636.0771,-599.8314C637.2536,-592.131 638.6525,-582.9743 639.9599,-574.4166"/>
            <polygon fill="#000000" stroke="#000000" points="643.4377,-574.8272 641.4882,-564.4133 636.518,-573.7699 643.4377,-574.8272"/>
        </g>
        <!-- srv_echo_resp -->
        <g id="node13" class="node">
            <title>srv_echo_resp</title>
            <polygon fill="none" stroke="#000000" points="913.2326,-860 779.37,-860 779.37,-824 913.2326,-824 913.2326,-860"/>
            <text text-anchor="middle" x="846.3013" y="-837.8" font-family="Times,serif" font-size="14.00" fill="#000000">CA_PROTO_ECHO</text>
        </g>
        <!-- cli_echo_req -->
        <g id="node14" class="node">
            <title>cli_echo_req</title>
            <ellipse fill="none" stroke="#000000" cx="846.3013" cy="-914" rx="92.076" ry="18"/>
            <text text-anchor="middle" x="846.3013" y="-909.8" font-family="Times,serif" font-size="14.00" fill="#000000">CA_PROTO_ECHO</text>
        </g>
        <!-- cli_echo_req&#45;&gt;srv_echo_resp -->
        <g id="edge2" class="edge">
            <title>cli_echo_req&#45;&gt;srv_echo_resp</title>
            <path fill="none" stroke="#000000" d="M846.3013,-895.8314C846.3013,-888.131 846.3013,-878.9743 846.3013,-870.4166"/>
            <polygon fill="#000000" stroke="#000000" points="849.8014,-870.4132 846.3013,-860.4133 842.8014,-870.4133 849.8014,-870.4132"/>
        </g>
        <!-- cli_create -->
        <g id="node15" class="node">
            <title>cli_create</title>
            <ellipse fill="none" stroke="#000000" cx="890.3013" cy="-618" rx="135.4769" ry="18"/>
            <text text-anchor="middle" x="890.3013" y="-613.8" font-family="Times,serif" font-size="14.00" fill="#000000">CA_PROTO_CREATE_CHAN</text>
        </g>
        <!-- srv_rights -->
        <g id="node16" class="node">
            <title>srv_rights</title>
            <polygon fill="none" stroke="#000000" points="981.0729,-564 775.5298,-564 775.5298,-528 981.0729,-528 981.0729,-564"/>
            <text text-anchor="middle" x="878.3013" y="-541.8" font-family="Times,serif" font-size="14.00" fill="#000000">CA_PROTO_ACCESS_RIGHTS</text>
        </g>
        <!-- cli_create&#45;&gt;srv_rights -->
        <g id="edge15" class="edge">
            <title>cli_create&#45;&gt;srv_rights</title>
            <path fill="none" stroke="#000000" d="M887.2732,-599.8314C885.9898,-592.131 884.4637,-582.9743 883.0374,-574.4166"/>
            <polygon fill="#000000" stroke="#000000" points="886.4667,-573.7018 881.3702,-564.4133 879.5619,-574.8526 886.4667,-573.7018"/>
        </g>
        <!-- srv_no_chan -->
        <g id="node18" class="node">
            <title>srv_no_chan</title>
            <polygon fill="none" stroke="#000000" points="1213.613,-564 998.9897,-564 998.9897,-528 1213.613,-528 1213.613,-564"/>
            <text text-anchor="middle" x="1106.3013" y="-541.8" font-family="Times,serif" font-size="14.00" fill="#000000">CA_PROTO_CREATE_CH_FAIL</text>
        </g>
        <!-- cli_create&#45;&gt;srv_no_chan -->
        <g id="edge18" class="edge">
            <title>cli_create&#45;&gt;srv_no_chan</title>
            <path fill="none" stroke="#000000" d="M940.6711,-601.2101C970.9481,-591.1177 1009.7709,-578.1768 1042.2188,-567.3608"/>
            <polygon fill="#000000" stroke="#000000" points="1043.6877,-570.5606 1052.0677,-564.0779 1041.474,-563.9198 1043.6877,-570.5606"/>
        </g>
        <!-- srv_create -->
        <g id="node17" class="node">
            <title>srv_create</title>
            <polygon fill="none" stroke="#000000" points="976.724,-492 779.8787,-492 779.8787,-456 976.724,-456 976.724,-492"/>
            <text text-anchor="middle" x="878.3013" y="-469.8" font-family="Times,serif" font-size="14.00" fill="#000000">CA_PROTO_CREATE_CHAN</text>
        </g>
        <!-- srv_rights&#45;&gt;srv_create -->
        <g id="edge16" class="edge">
            <title>srv_rights&#45;&gt;srv_create</title>
            <path fill="none" stroke="#000000" d="M878.3013,-527.8314C878.3013,-520.131 878.3013,-510.9743 878.3013,-502.4166"/>
            <polygon fill="#000000" stroke="#000000" points="881.8014,-502.4132 878.3013,-492.4133 874.8014,-502.4133 881.8014,-502.4132"/>
        </g>
        <!-- channel_ready -->
        <g id="node32" class="node">
            <title>channel_ready</title>
            <polygon fill="none" stroke="#000000" points="954.4898,-390.5442 954.4898,-405.4558 909.8596,-416 846.743,-416 802.1129,-405.4558 802.1129,-390.5442 846.743,-380 909.8596,-380 954.4898,-390.5442"/>
            <polygon fill="none" stroke="#000000" points="958.4946,-387.3799 958.4946,-408.6201 910.3268,-420 846.2758,-420 798.1081,-408.6201 798.1081,-387.3799 846.2758,-376 910.3268,-376 958.4946,-387.3799"/>
            <text text-anchor="middle" x="878.3013" y="-393.8" font-family="Times,serif" font-size="14.00" fill="#000000">Channel Ready</text>
        </g>
        <!-- srv_create&#45;&gt;channel_ready -->
        <g id="edge17" class="edge">
            <title>srv_create&#45;&gt;channel_ready</title>
            <path fill="none" stroke="#000000" d="M878.3013,-455.9891C878.3013,-448.291 878.3013,-439.0629 878.3013,-430.2561"/>
            <polygon fill="#000000" stroke="#000000" points="881.8014,-430.2282 878.3013,-420.2282 874.8014,-430.2282 881.8014,-430.2282"/>
        </g>
        <!-- cli_clear -->
        <g id="node19" class="node">
            <title>cli_clear</title>
            <ellipse fill="none" stroke="#000000" cx="217.3013" cy="-322" rx="148.2186" ry="18"/>
            <text text-anchor="middle" x="217.3013" y="-317.8" font-family="Times,serif" font-size="14.00" fill="#000000">CA_PROTO_CLEAR_CHANNEL</text>
        </g>
        <!-- channel_close -->
        <g id="node33" class="node">
            <title>channel_close</title>
            <polygon fill="none" stroke="#000000" points="428.6918,-238.5442 428.6918,-253.4558 385.7007,-264 324.902,-264 281.9109,-253.4558 281.9109,-238.5442 324.902,-228 385.7007,-228 428.6918,-238.5442"/>
            <polygon fill="none" stroke="#000000" points="432.7022,-235.4086 432.7022,-256.5914 386.1865,-268 324.4162,-268 277.9005,-256.5914 277.9005,-235.4086 324.4162,-224 386.1865,-224 432.7022,-235.4086"/>
            <text text-anchor="middle" x="355.3013" y="-241.8" font-family="Times,serif" font-size="14.00" fill="#000000">Channel Close</text>
        </g>
        <!-- cli_clear&#45;&gt;channel_close -->
        <g id="edge20" class="edge">
            <title>cli_clear&#45;&gt;channel_close</title>
            <path fill="none" stroke="#000000" d="M249.3082,-304.373C267.1224,-294.5623 289.6073,-282.1793 309.2793,-271.3455"/>
            <polygon fill="#000000" stroke="#000000" points="311.0219,-274.3815 318.0929,-266.4916 307.645,-268.2499 311.0219,-274.3815"/>
        </g>
        <!-- srv_disconn -->
        <g id="node20" class="node">
            <title>srv_disconn</title>
            <polygon fill="none" stroke="#000000" points="601.5034,-340 383.0992,-340 383.0992,-304 601.5034,-304 601.5034,-340"/>
            <text text-anchor="middle" x="492.3013" y="-317.8" font-family="Times,serif" font-size="14.00" fill="#000000">CA_PROTO_SERVER_DISCONN</text>
        </g>
        <!-- srv_disconn&#45;&gt;channel_close -->
        <g id="edge22" class="edge">
            <title>srv_disconn&#45;&gt;channel_close</title>
            <path fill="none" stroke="#000000" d="M459.8343,-303.9891C442.3473,-294.2883 420.4806,-282.1578 401.2732,-271.5026"/>
            <polygon fill="#000000" stroke="#000000" points="402.818,-268.3571 392.3755,-266.5667 399.4222,-274.4784 402.818,-268.3571"/>
        </g>
        <!-- cli_add -->
        <g id="node21" class="node">
            <title>cli_add</title>
            <ellipse fill="none" stroke="#000000" cx="742.3013" cy="-322" rx="123.2785" ry="18"/>
            <text text-anchor="middle" x="742.3013" y="-317.8" font-family="Times,serif" font-size="14.00" fill="#000000">CA_PROTO_EVENT_ADD</text>
        </g>
        <!-- subscript_ready -->
        <g id="node34" class="node">
            <title>subscript_ready</title>
            <polygon fill="none" stroke="#000000" points="836.5038,-238.5442 836.5038,-253.4558 781.3213,-264 703.2814,-264 648.0989,-253.4558 648.0989,-238.5442 703.2814,-228 781.3213,-228 836.5038,-238.5442"/>
            <polygon fill="none" stroke="#000000" points="840.508,-235.2368 840.508,-256.7632 781.7008,-268 702.9019,-268 644.0947,-256.7632 644.0947,-235.2368 702.9019,-224 781.7008,-224 840.508,-235.2368"/>
            <text text-anchor="middle" x="742.3013" y="-241.8" font-family="Times,serif" font-size="14.00" fill="#000000">Subscription Ready</text>
        </g>
        <!-- cli_add&#45;&gt;subscript_ready -->
        <g id="edge29" class="edge">
            <title>cli_add&#45;&gt;subscript_ready</title>
            <path fill="none" stroke="#000000" d="M742.3013,-303.9891C742.3013,-296.291 742.3013,-287.0629 742.3013,-278.2561"/>
            <polygon fill="#000000" stroke="#000000" points="745.8014,-278.2282 742.3013,-268.2282 738.8014,-278.2282 745.8014,-278.2282"/>
        </g>
        <!-- srv_monitor -->
        <g id="node22" class="node">
            <title>srv_monitor</title>
            <polygon fill="none" stroke="#000000" points="707.321,-188 529.2817,-188 529.2817,-152 707.321,-152 707.321,-188"/>
            <text text-anchor="middle" x="618.3013" y="-165.8" font-family="Times,serif" font-size="14.00" fill="#000000">CA_PROTO_EVENT_ADD</text>
        </g>
        <!-- srv_monitor_last -->
        <g id="node23" class="node">
            <title>srv_monitor_last</title>
            <polygon fill="none" stroke="#000000" points="981.1374,-116 751.4653,-116 751.4653,-80 981.1374,-80 981.1374,-116"/>
            <text text-anchor="middle" x="866.3013" y="-93.8" font-family="Times,serif" font-size="14.00" fill="#000000">CA_PROTO_EVENT_ADD w/o data</text>
        </g>
        <!-- subscript_close -->
        <g id="node35" class="node">
            <title>subscript_close</title>
            <polygon fill="none" stroke="#000000" points="957.7068,-14.5442 957.7068,-29.4558 904.1627,-40 828.44,-40 774.8959,-29.4558 774.8959,-14.5442 828.44,-4 904.1627,-4 957.7068,-14.5442"/>
            <polygon fill="none" stroke="#000000" points="961.7155,-11.2564 961.7155,-32.7436 904.5545,-44 828.0482,-44 770.8872,-32.7436 770.8872,-11.2564 828.0482,0 904.5545,0 961.7155,-11.2564"/>
            <text text-anchor="middle" x="866.3013" y="-17.8" font-family="Times,serif" font-size="14.00" fill="#000000">Subscription Close</text>
        </g>
        <!-- srv_monitor_last&#45;&gt;subscript_close -->
        <g id="edge33" class="edge">
            <title>srv_monitor_last&#45;&gt;subscript_close</title>
            <path fill="none" stroke="#000000" d="M866.3013,-79.9891C866.3013,-72.291 866.3013,-63.0629 866.3013,-54.2561"/>
            <polygon fill="#000000" stroke="#000000" points="869.8014,-54.2282 866.3013,-44.2282 862.8014,-54.2282 869.8014,-54.2282"/>
        </g>
        <!-- cli_cancel -->
        <g id="node24" class="node">
            <title>cli_cancel</title>
            <ellipse fill="none" stroke="#000000" cx="866.3013" cy="-170" rx="140.6943" ry="18"/>
            <text text-anchor="middle" x="866.3013" y="-165.8" font-family="Times,serif" font-size="14.00" fill="#000000">CA_PROTO_EVENT_CANCEL</text>
        </g>
        <!-- cli_cancel&#45;&gt;srv_monitor_last -->
        <g id="edge32" class="edge">
            <title>cli_cancel&#45;&gt;srv_monitor_last</title>
            <path fill="none" stroke="#000000" d="M866.3013,-151.8314C866.3013,-144.131 866.3013,-134.9743 866.3013,-126.4166"/>
            <polygon fill="#000000" stroke="#000000" points="869.8014,-126.4132 866.3013,-116.4133 862.8014,-126.4133 869.8014,-126.4132"/>
        </g>
        <!-- cli_read_notify -->
        <g id="node25" class="node">
            <title>cli_read_notify</title>
            <ellipse fill="none" stroke="#000000" cx="1015.3013" cy="-322" rx="132.0265" ry="18"/>
            <text text-anchor="middle" x="1015.3013" y="-317.8" font-family="Times,serif" font-size="14.00" fill="#000000">CA_PROTO_READ_NOTIFY</text>
        </g>
        <!-- srv_read_notify -->
        <g id="node26" class="node">
            <title>srv_read_notify</title>
            <polygon fill="none" stroke="#000000" points="1111.0477,-264 919.555,-264 919.555,-228 1111.0477,-228 1111.0477,-264"/>
            <text text-anchor="middle" x="1015.3013" y="-241.8" font-family="Times,serif" font-size="14.00" fill="#000000">CA_PROTO_READ_NOTIFY</text>
        </g>
        <!-- cli_read_notify&#45;&gt;srv_read_notify -->
        <g id="edge27" class="edge">
            <title>cli_read_notify&#45;&gt;srv_read_notify</title>
            <path fill="none" stroke="#000000" d="M1015.3013,-303.9891C1015.3013,-295.1566 1015.3013,-284.3099 1015.3013,-274.3965"/>
            <polygon fill="#000000" stroke="#000000" points="1018.8014,-274.145 1015.3013,-264.145 1011.8014,-274.1451 1018.8014,-274.145"/>
        </g>
        <!-- cli_write -->
        <g id="node27" class="node">
            <title>cli_write</title>
            <ellipse fill="none" stroke="#000000" cx="1262.3013" cy="-322" rx="96.1497" ry="18"/>
            <text text-anchor="middle" x="1262.3013" y="-317.8" font-family="Times,serif" font-size="14.00" fill="#000000">CA_PROTO_WRITE</text>
        </g>
        <!-- cli_write_notify -->
        <g id="node28" class="node">
            <title>cli_write_notify</title>
            <ellipse fill="none" stroke="#000000" cx="1513.3013" cy="-322" rx="136.5995" ry="18"/>
            <text text-anchor="middle" x="1513.3013" y="-317.8" font-family="Times,serif" font-size="14.00" fill="#000000">CA_PROTO_WRITE_NOTIFY</text>
        </g>
        <!-- srv_write_notify -->
        <g id="node29" class="node">
            <title>srv_write_notify</title>
            <polygon fill="none" stroke="#000000" points="1612.2621,-264 1414.3405,-264 1414.3405,-228 1612.2621,-228 1612.2621,-264"/>
            <text text-anchor="middle" x="1513.3013" y="-241.8" font-family="Times,serif" font-size="14.00" fill="#000000">CA_PROTO_WRITE_NOTIFY</text>
        </g>
        <!-- cli_write_notify&#45;&gt;srv_write_notify -->
        <g id="edge25" class="edge">
            <title>cli_write_notify&#45;&gt;srv_write_notify</title>
            <path fill="none" stroke="#000000" d="M1513.3013,-303.9891C1513.3013,-295.1566 1513.3013,-284.3099 1513.3013,-274.3965"/>
            <polygon fill="#000000" stroke="#000000" points="1516.8014,-274.145 1513.3013,-264.145 1509.8014,-274.1451 1516.8014,-274.145"/>
        </g>
        <!-- sock_open -->
        <g id="node30" class="node">
            <title>sock_open</title>
            <polygon fill="none" stroke="#000000" points="694.0833,-982.5442 694.0833,-997.4558 655.5491,-1008 601.0535,-1008 562.5193,-997.4558 562.5193,-982.5442 601.0535,-972 655.5491,-972 694.0833,-982.5442"/>
            <polygon fill="none" stroke="#000000" points="698.0917,-979.4933 698.0917,-1000.5067 656.0887,-1012 600.514,-1012 558.511,-1000.5067 558.511,-979.4933 600.514,-968 656.0887,-968 698.0917,-979.4933"/>
            <text text-anchor="middle" x="628.3013" y="-985.8" font-family="Times,serif" font-size="14.00" fill="#000000">Open Socket</text>
        </g>
        <!-- sock_open&#45;&gt;srv_version -->
        <g id="edge3" class="edge">
            <title>sock_open&#45;&gt;srv_version</title>
            <path fill="none" stroke="#000000" d="M584.7859,-972.2694C574.4922,-968.1653 563.5329,-963.8689 553.3013,-960 531.4113,-951.7225 507.2846,-943.0102 485.877,-935.4211"/>
            <polygon fill="#000000" stroke="#000000" points="486.845,-932.0511 476.2503,-932.0188 484.5125,-938.651 486.845,-932.0511"/>
        </g>
        <!-- sock_open&#45;&gt;cli_version -->
        <g id="edge5" class="edge">
            <title>sock_open&#45;&gt;cli_version</title>
            <path fill="none" stroke="#000000" d="M628.3013,-967.6086C628.3013,-959.7272 628.3013,-950.7616 628.3013,-942.4482"/>
            <polygon fill="#000000" stroke="#000000" points="631.8014,-942.3974 628.3013,-932.3975 624.8014,-942.3975 631.8014,-942.3974"/>
        </g>
        <!-- sock_open&#45;&gt;cli_echo_req -->
        <g id="edge1" class="edge">
            <title>sock_open&#45;&gt;cli_echo_req</title>
            <path fill="none" stroke="#000000" d="M676.1424,-973.3215C710.1681,-961.4593 755.9498,-945.4987 791.4547,-933.1208"/>
            <polygon fill="#000000" stroke="#000000" points="792.8877,-936.3279 801.1781,-929.731 790.5833,-929.7181 792.8877,-936.3279"/>
        </g>
        <!-- circuit_ready&#45;&gt;cli_events_off -->
        <g id="edge9" class="edge">
            <title>circuit_ready&#45;&gt;cli_events_off</title>
            <path fill="none" stroke="#000000" d="M445.8217,-681.1076C380.5975,-668.2656 280.2031,-648.4988 209.1771,-634.5144"/>
            <polygon fill="#000000" stroke="#000000" points="209.8444,-631.0787 199.3566,-632.5808 208.4921,-637.9468 209.8444,-631.0787"/>
        </g>
        <!-- circuit_ready&#45;&gt;cli_events_on -->
        <g id="edge10" class="edge">
            <title>circuit_ready&#45;&gt;cli_events_on</title>
            <path fill="none" stroke="#000000" d="M477.5961,-672.8298C461.9017,-662.9721 443.1927,-651.221 427.1276,-641.1306"/>
            <polygon fill="#000000" stroke="#000000" points="428.8404,-638.0732 418.5106,-635.7182 425.1172,-644.001 428.8404,-638.0732"/>
        </g>
        <!-- circuit_ready&#45;&gt;cli_search -->
        <g id="edge11" class="edge">
            <title>circuit_ready&#45;&gt;cli_search</title>
            <path fill="none" stroke="#000000" d="M544.9613,-673.0315C560.9099,-663.0963 580.0022,-651.2027 596.3506,-641.0185"/>
            <polygon fill="#000000" stroke="#000000" points="598.4762,-643.818 605.1134,-635.5597 594.7749,-637.8765 598.4762,-643.818"/>
        </g>
        <!-- circuit_ready&#45;&gt;cli_create -->
        <g id="edge14" class="edge">
            <title>circuit_ready&#45;&gt;cli_create</title>
            <path fill="none" stroke="#000000" d="M576.0231,-681.0215C639.2971,-668.3333 735.982,-648.9453 805.3988,-635.0253"/>
            <polygon fill="#000000" stroke="#000000" points="806.3189,-638.4106 815.4355,-633.0127 804.9425,-631.5472 806.3189,-638.4106"/>
        </g>
        <!-- channel_ready&#45;&gt;cli_clear -->
        <g id="edge19" class="edge">
            <title>channel_ready&#45;&gt;cli_clear</title>
            <path fill="none" stroke="#000000" d="M797.9106,-388.7569C682.3922,-375.4749 468.7002,-350.9052 335.2693,-335.5636"/>
            <polygon fill="#000000" stroke="#000000" points="335.3418,-332.049 325.0074,-334.3838 334.5421,-339.0032 335.3418,-332.049"/>
        </g>
        <!-- channel_ready&#45;&gt;srv_disconn -->
        <g id="edge21" class="edge">
            <title>channel_ready&#45;&gt;srv_disconn</title>
            <path fill="none" stroke="#000000" d="M809.7371,-384.5003C749.7525,-372.6899 661.8114,-355.375 593.6934,-341.9632"/>
            <polygon fill="#000000" stroke="#000000" points="594.2806,-338.5117 583.7928,-340.0139 592.9282,-345.3798 594.2806,-338.5117"/>
        </g>
        <!-- channel_ready&#45;&gt;cli_add -->
        <g id="edge28" class="edge">
            <title>channel_ready&#45;&gt;cli_add</title>
            <path fill="none" stroke="#000000" d="M840.7787,-377.0315C822.6708,-366.9123 800.9273,-354.7615 782.483,-344.4545"/>
            <polygon fill="#000000" stroke="#000000" points="784.1608,-341.3827 773.724,-339.5597 780.7461,-347.4933 784.1608,-341.3827"/>
        </g>
        <!-- channel_ready&#45;&gt;cli_read_notify -->
        <g id="edge26" class="edge">
            <title>channel_ready&#45;&gt;cli_read_notify</title>
            <path fill="none" stroke="#000000" d="M915.7372,-377.2327C933.9837,-367.1105 955.961,-354.9187 974.6206,-344.5674"/>
            <polygon fill="#000000" stroke="#000000" points="976.4366,-347.5625 983.4833,-339.6509 973.0408,-341.4413 976.4366,-347.5625"/>
        </g>
        <!-- channel_ready&#45;&gt;cli_write -->
        <g id="edge23" class="edge">
            <title>channel_ready&#45;&gt;cli_write</title>
            <path fill="none" stroke="#000000" d="M946.5104,-384.5003C1013.6819,-371.2059 1116.0929,-350.9371 1185.9495,-337.1113"/>
            <polygon fill="#000000" stroke="#000000" points="1186.8817,-340.4948 1196.0119,-335.1198 1185.5226,-333.628 1186.8817,-340.4948"/>
        </g>
        <!-- channel_ready&#45;&gt;cli_write_notify -->
        <g id="edge24" class="edge">
            <title>channel_ready&#45;&gt;cli_write_notify</title>
            <path fill="none" stroke="#000000" d="M958.7875,-388.5688C1055.7122,-377.1847 1223.4426,-357.3994 1367.3013,-340 1378.9881,-338.5865 1391.1996,-337.0985 1403.368,-335.6086"/>
            <polygon fill="#000000" stroke="#000000" points="1404.0671,-339.0492 1413.5669,-334.3582 1403.2152,-332.1012 1404.0671,-339.0492"/>
        </g>
        <!-- subscript_ready&#45;&gt;srv_monitor -->
        <g id="edge30" class="edge">
            <title>subscript_ready&#45;&gt;srv_monitor</title>
            <path fill="none" stroke="#000000" d="M706.1021,-223.8133C690.6848,-214.364 672.6769,-203.3269 656.9965,-193.7164"/>
            <polygon fill="#000000" stroke="#000000" points="658.4252,-190.487 648.0702,-188.2454 654.7672,-196.4552 658.4252,-190.487"/>
        </g>
        <!-- subscript_ready&#45;&gt;cli_cancel -->
        <g id="edge31" class="edge">
            <title>subscript_ready&#45;&gt;cli_cancel</title>
            <path fill="none" stroke="#000000" d="M778.5006,-223.8133C794.3033,-214.1279 812.8276,-202.7742 828.7776,-192.9984"/>
            <polygon fill="#000000" stroke="#000000" points="830.6431,-195.9602 837.3401,-187.7504 826.9851,-189.992 830.6431,-195.9602"/>
        </g>
    </g>
</svg>
